inDegrees=no
num_controls=7
num_derivatives=13
num_iterations=121
num_multipliers=7
num_parameters=0
num_slacks=7
num_states=26
objective=0.448420
objective_accelerations=0.049262
objective_balance=0.007411
objective_effort=0.036508
objective_height=0.350301
objective_ligament=0.004938
solver_duration=1738.810245
status=Solve_Succeeded
success=true
DataType=double
version=3
OpenSimVersion=4.5
endheader
time	/jointset/ground_pelvis/pelvis_tilt/value	/jointset/ground_pelvis/pelvis_tx/value	/jointset/ground_pelvis/pelvis_ty/value	/jointset/hip_l/hip_flexion_l/value	/jointset/hip_l/hip_adduction_l/value	/jointset/hip_l/hip_rotation_l/value	/jointset/back/lumbar_extension/value	/jointset/patellofemoral_l/patellar_flexion_l/value	/jointset/knee_l/knee_flexion_l/value	/jointset/knee_l/knee_adduction_l/value	/jointset/knee_l/knee_rotation_l/value	/jointset/ankle_l/ankle_angle_l/value	/jointset/subtalar_l/subtalar_angle_l/value	/jointset/ground_pelvis/pelvis_tilt/speed	/jointset/ground_pelvis/pelvis_tx/speed	/jointset/ground_pelvis/pelvis_ty/speed	/jointset/hip_l/hip_flexion_l/speed	/jointset/hip_l/hip_adduction_l/speed	/jointset/hip_l/hip_rotation_l/speed	/jointset/back/lumbar_extension/speed	/jointset/patellofemoral_l/patellar_flexion_l/speed	/jointset/knee_l/knee_flexion_l/speed	/jointset/knee_l/knee_adduction_l/speed	/jointset/knee_l/knee_rotation_l/speed	/jointset/ankle_l/ankle_angle_l/speed	/jointset/subtalar_l/subtalar_angle_l/speed	/forceset/tau_hip_flexion_l	/forceset/tau_hip_adduction_l	/forceset/tau_hip_rotation_l	/forceset/tau_knee_flexion_l	/forceset/tau_ankle_angle_l	/forceset/tau_subtalar_angle_l	/forceset/tau_lumbar_extension	lambda_cid13_p0	lambda_cid13_p1	lambda_cid13_p2	lambda_cid13_p3	lambda_cid13_p4	lambda_cid13_p5	lambda_cid14_p0	/jointset/ground_pelvis/pelvis_tilt/accel	/jointset/ground_pelvis/pelvis_tx/accel	/jointset/ground_pelvis/pelvis_ty/accel	/jointset/hip_l/hip_flexion_l/accel	/jointset/hip_l/hip_adduction_l/accel	/jointset/hip_l/hip_rotation_l/accel	/jointset/back/lumbar_extension/accel	/jointset/patellofemoral_l/patellar_flexion_l/accel	/jointset/knee_l/knee_flexion_l/accel	/jointset/knee_l/knee_adduction_l/accel	/jointset/knee_l/knee_rotation_l/accel	/jointset/ankle_l/ankle_angle_l/accel	/jointset/subtalar_l/subtalar_angle_l/accel	gamma_cid13_p0	gamma_cid13_p1	gamma_cid13_p2	gamma_cid13_p3	gamma_cid13_p4	gamma_cid13_p5	gamma_cid14_p0
1.5	-0.450613348984671	-0.07469778136498334	0.7622021178420215	1.270949043159284	-0.3095826382969157	-0.04603655967795327	-0.3448919366491803	0.690094010126041	0.690094010126041	-0.1726426361118295	0.1742609298485478	0.03586736891162998	-0.04914988167282242	0.7389825677606211	0.2633547520727166	0.4903722378690782	-2.346349187356837	0.03221832437058746	-0.6085158168647917	0.5620430666046992	-1.748837957817787	-1.748837957817785	0.005062268878995457	-0.001295192245053805	-0.2345756971666469	0.006501713151231369	-0.2511722764896879	0.01952044356014158	-0.02111708887179157	-0.2000983801537983	0.1396470616464142	0.04226302375874298	0.2257037478132136	5.916793976565424	-22.08156086937425	6.191460216302691	-5.314058343131601	-609.9980644795595	-58.2727414777406	-28.23804555158359	0.6326537649185481	0.6721823057583881	-0.3002301478312509	-1.505628552651632	0.5992702490159804	-0.318729322565204	1.714125928720847	-1.065913629190107	-1.065913629190109	0.07797943629349272	-0.01467844501330851	-0.1322820947612016	0.5795172001326505	2.667480977743752e-07	7.032769819194237e-07	-1.32514212750734e-06	-7.873627752476139e-08	3.415392394740856e-07	-5.073471871755904e-08	2.912687592796905e-07
1.51	-0.4431921862367831	-0.072030805859157	0.7670899225544988	1.247412418007133	-0.3092312299854786	-0.05213694593913825	-0.3391870164467459	0.6725546215812335	0.672554621581233	-0.1725897259938514	0.1742480554399827	0.03351532457716417	-0.04905667125802965	0.7451560509989873	0.2700138248675938	0.4870948580791465	-2.360661696975313	0.03809416835095631	-0.6114329766832708	0.578884277788244	-1.75879424542622	-1.758794245426218	0.005532150828805418	-0.001334001916533	-0.2357682141792756	0.01217564735242397	-0.2434563039805072	0.01894113290162189	-0.02095966815070148	-0.198562017902677	0.1394302173441725	0.04167635325493923	0.2197509143739637	6.075615316454956	-21.96005197221669	6.292564571686352	-5.26711991356933	-605.7370147937469	-58.56877039805327	-29.24302905628535	0.5956263364936722	0.658808569266038	-0.3555201137450016	-1.346915549052776	0.5863108290641991	-0.2587242746372028	1.660614299082347	-0.9237036650429304	-0.9237036650429054	0.03350796229875962	-0.006460879046740937	-0.1029829276915343	0.5665273791726845	1.628452901687858e-07	9.325088839150235e-07	-8.448784266226444e-07	3.077063403956959e-08	2.770409553095276e-07	2.07556147972067e-08	2.415781639182309e-07
1.52	-0.4357121025098719	-0.06929803186479917	0.7719421478252426	1.223742097082277	-0.3088201493629343	-0.05826260679113762	-0.3333153850152939	0.6549230266926671	0.6549230266926661	-0.1725317139787799	0.1742331972045366	0.03115330578793649	-0.04890568233141292	0.7507667635652741	0.2765144497790175	0.4832563495223798	-2.373088341898078	0.04415278659205433	-0.6135707350276675	0.5953853124082309	-1.767279226569575	-1.767279226569573	0.006082648297654633	-0.001691957621282375	-0.2365705881190177	0.01805741551602136	-0.2357403314713265	0.01836182224310216	-0.020802247429611	-0.1970256556515559	0.1392133730419308	0.04108968275113541	0.2137980809347138	6.226714936189968	-21.83958206101613	6.396565798788381	-5.209125620684364	-601.6022531775598	-58.92418424224674	-30.23016620613625	0.5200996305026361	0.6404927290676827	-0.4124559011982421	-1.128455613509811	0.6358251011618139	-0.1628490277487339	1.646090616009274	-0.7716523361745588	-0.77165233617472	0.09410254010134322	-0.07850765166829796	-0.054253480183891	0.621083992613606	9.458008458616819e-08	1.100534034165936e-06	-5.326288988619043e-07	1.026541611929428e-07	2.393209862010394e-07	7.503451123334713e-08	2.104928773157807e-07
1.53	-0.4281788537561944	-0.06650109388849015	0.7767532228115871	1.199956928229838	-0.3083480342209367	-0.06440710571938248	-0.3272805214098164	0.6372139798165787	0.6372139798165781	-0.1724678716943315	0.1742146110342792	0.02878504968479992	-0.04869533901286775	0.7557731658073553	0.2828409664489108	0.4788683686834386	-2.383628020133452	0.05025112509299701	-0.6152820023317208	0.6115253893326659	-1.774286857138864	-1.774286857138864	0.006653236044369657	-0.001976694061389986	-0.2370347632403933	0.02399222124961643	-0.2278290225384269	0.01750557425220043	-0.02070797423428872	-0.195677989295159	0.1392904771808695	0.04034414027844933	0.2076672366191195	6.467037091058089	-21.66701497724626	6.493721733847436	-5.182535377392918	-597.4731047061155	-59.20999247936898	-31.19515069703292	0.4744514731973052	0.6239346099218374	-0.4654660164394168	-0.9690951036738975	0.5938518192063507	-0.1680066920438551	1.588663327470965	-0.6288633143318649	-0.628863314331917	0.0338551519796621	0.003956667507760745	-0.03560530558119412	0.5766650909460941	6.417983115295766e-08	1.203527010688119e-06	-3.988944300453653e-07	1.345628424096738e-07	2.300529768396252e-07	1.110262557734484e-07	1.991757312697778e-07
1.54	-0.4205988327896687	-0.06364185005068781	0.7815177186213026	1.17607588836002	-0.3078155329750005	-0.07056726554272991	-0.3210861176157325	0.6194421476553923	0.6194421476553922	-0.1723992598804114	0.1741946601611587	0.02641353067495623	-0.04842625039154391	0.7601212061348936	0.2889756220776794	0.4739405141966029	-2.392262545373738	0.05623000737977386	-0.6167029140481832	0.627293350129515	-1.779836283589183	-1.779836283589182	0.007036554192007893	-0.00196489819390643	-0.2372231694604408	0.02980647607175698	-0.2199177136055264	0.01664932626129875	-0.02061370103896657	-0.194330322938762	0.1393675813198073	0.0395985978057633	0.2015363923035251	6.699080095737052	-21.49495707639472	6.593196469534564	-5.137593635867804	-593.4747945989503	-59.55099701382527	-32.1338276585259	0.3884272475940415	0.6021205208427304	-0.5204306307771545	-0.7474250144924117	0.6119338583286418	-0.1047779102305589	1.571667390492112	-0.4800115123803405	-0.4800115123803405	0.05664862028598527	-0.01920119014996109	0.0009003000817330385	0.5969738103226997	4.468325392369957e-08	1.288054233651075e-06	-3.346794417032282e-07	1.547175559780765e-07	2.287401228814674e-07	1.407496112314897e-07	1.952794421969019e-07
1.55	-0.4129785380461378	-0.06072227847080094	0.7862302874851558	1.152117942993895	-0.3072240098008527	-0.07673896751500292	-0.3147361760574485	0.601622019766742	0.6016220197667421	-0.172328646863093	0.1741752880051409	0.02404149499326508	-0.04809978919477097	0.7638320625293584	0.2948997572468515	0.4684875237497986	-2.399008373868196	0.06204032272489174	-0.6174568368087551	0.6426081345157121	-1.783953418404766	-1.783953418404767	0.006975721284538614	-0.00197733539405065	-0.2371384977659559	0.03545151173937018	-0.211932629332353	0.01561301049676257	-0.02053565496269924	-0.1929962033913792	0.1395021570857116	0.03872499335326554	0.195299630961303	6.945395563039646	-21.27085069390305	6.68559507486053	-5.074768260560726	-589.4797906497165	-59.81523733241043	-33.04192315244619	0.3465742878173851	0.5817525176366363	-0.5705452841295908	-0.5904236728977869	0.5603004174948155	-0.03338668943656177	1.498359910947496	-0.3422236094813674	-0.3422236094812038	-0.05377649062497364	-0.002296780396459147	0.01908280229840931	0.5429550847531179	3.774960797290772e-08	1.351305697078401e-06	-3.505629852120279e-07	1.61329654647319e-07	2.365929914531481e-07	1.632506923123755e-07	1.999332709408894e-07
